<svg width="256" height="256" viewBox="0 0 256 256" fill="none" xmlns="http://www.w3.org/2000/svg"><defs><radialGradient id="mango" cx="0" cy="0" r="1" gradientUnits="userSpaceOnUse" gradientTransform="translate(92 72) rotate(48) scale(190)"><stop offset="0" stop-color="#FFF7CC"/><stop offset="0.35" stop-color="#FFD95C"/><stop offset="0.7" stop-color="#FF9F0A"/><stop offset="1" stop-color="#D66A00"/></radialGradient></defs><rect width="256" height="256" rx="58" fill="#ffffff"/><path d="M129 34C171 34 214 66 214 128C214 184 174 224 122 224C72 224 40 188 40 136C40 79 78 34 129 34Z" fill="url(#mango)"/><path d="M171 38C184 36 201 41 210 52C195 58 178 58 164 52L171 38Z" fill="#37A446"/><path d="M76 83H182L102 173H182" stroke="#1D1D1F" stroke-width="18" stroke-linecap="round" stroke-linejoin="round"/><path d="M111 83L164 173" stroke="#1D1D1F" stroke-width="18" stroke-linecap="round"/></svg>